<svg xmlns="http://www.w3.org/2000/svg" version="1.1" xmlns:xlink="http://www.w3.org/1999/xlink" xmlns:svgjs="http://svgjs.dev/svgjs" width="1024" height="768" preserveAspectRatio="none" viewBox="0 0 1024 768"><g mask="url(&quot;#SvgjsMask4640&quot;)" fill="none"><rect width="1024" height="768" x="0" y="0" fill="url(&quot;#SvgjsRadialGradient4641&quot;)"></rect><use xlink:href="#SvgjsG4652" transform="translate(0, 0)" fill="rgba(0, 0, 0, 1)"></use><use xlink:href="#SvgjsG4652" transform="translate(0, 720)" fill="rgba(31, 124, 105, 1)"></use><use xlink:href="#SvgjsG4652" transform="translate(720, 0)" fill="rgba(31, 124, 105, 1)"></use><use xlink:href="#SvgjsG4652" transform="translate(720, 720)" fill="rgba(0, 0, 0, 1)"></use></g><defs><mask id="SvgjsMask4640"><rect width="1024" height="768" fill="#ffffff"></rect></mask><radialGradient cx="50%" cy="50%" r="640" gradientUnits="userSpaceOnUse" id="SvgjsRadialGradient4641"><stop stop-color="#0e2a47" offset="0"></stop><stop stop-color="rgba(8, 7, 42, 1)" offset="1"></stop></radialGradient><g id="SvgjsG4645"><path d="M6.498 9.304L12.139 3.663l1.565 1.566-5.641 5.641z"></path><path d="M6.8 0.457h2.541v8.028H6.8z"></path><path d="M8.072 10.876L2.429 5.238l1.563-1.566L9.636 9.313zM1.2 13.277h13.733v2.266H1.2z"></path><path d="M0.733 9.143h2.267v6.4h-2.267z m12.267 0h2.267v6.4h-2.267z"></path></g><g id="SvgjsG4651"><path d="M3.474 10.969C3.474 7.665 8.077 0.361 8.077 0.361s4.602 7.305 4.602 10.608c0 2.247-1.506 4.771-4.602 4.771-3.095 0-4.603-2.524-4.603-4.771z" fill-rule="evenodd"></path></g><g id="SvgjsG4650"><path d="M7.713 15.485C3.459 15.485 0 12.025 0 7.768 0 3.513 3.459 0.051 7.713 0.051S15.432 3.513 15.432 7.768c0 4.257-3.465 7.716-7.719 7.717z m0-1.91c3.201 0 5.81-2.604 5.81-5.809 0-3.199-2.61-5.807-5.81-5.807-3.202 0-5.804 2.609-5.804 5.807-0.001 3.206 2.602 5.809 5.804 5.809z"></path><path d="M7.753 8.787a0.574 0.574 0 0 1-0.554-0.042 0.578 0.578 0 0 1-0.259-0.399L6.931 3.862a0.58 0.58 0 0 1 1.162 0v3.478l2.975-1.4a0.578 0.578 0 0 1 0.773 0.275c0.138 0.292 0.011 0.637-0.276 0.774l-3.81 1.798z"></path></g><g id="SvgjsG4644"><path d="M2.524 8.637H0.014V7.308h2.51v1.329zM3.656 4.576L1.884 2.804l0.935-0.935 1.772 1.772-0.935 0.935z m0 6.817l0.935 0.935-1.772 1.773-0.934-0.936 1.771-1.772z m4.997-8.884h-1.33V-0.002h1.33v2.511z m-1.33 10.952h1.33v2.51h-1.33v-2.509zM12.344 4.576l-0.96-0.935 1.796-1.772 0.935 0.935-1.772 1.772z m0 6.792l1.771 1.797-0.935 0.936-1.771-1.774 0.936-0.96z m3.643-4.06v1.329h-2.51V7.308h2.509z"></path><path d="M3.702 7.984a4.184 4.184 0 1 0 8.368 0 4.184 4.184 0 1 0-8.368 0"></path></g><g id="SvgjsG4646"><path d="M15.233 9.431c0.295 0 0.569-0.239 0.61-0.532 0 0 0.056-0.411 0.056-0.899s-0.056-0.899-0.056-0.899c-0.041-0.292-0.315-0.531-0.61-0.53h-1.524c-0.295 0-0.602-0.188-0.681-0.418s-0.188-0.967 0.021-1.176l1.078-1.077c0.209-0.209 0.225-0.565 0.036-0.792l-1.268-1.268c-0.227-0.189-0.583-0.173-0.792 0.036l-1.078 1.077c-0.208 0.209-0.556 0.293-0.772 0.187s-0.822-0.552-0.821-0.847V0.767c0-0.295-0.239-0.569-0.531-0.61 0 0-0.411-0.057-0.9-0.056s-0.899 0.057-0.899 0.056c-0.293 0.04-0.532 0.315-0.532 0.61v1.524c0 0.295-0.188 0.601-0.418 0.681s-0.967 0.188-1.176-0.021l-1.078-1.078C3.689 1.665 3.333 1.649 3.107 1.837l-1.268 1.268c-0.189 0.227-0.173 0.583 0.036 0.792l1.077 1.078c0.209 0.209 0.293 0.556 0.187 0.772s-0.552 0.822-0.847 0.822H0.767c-0.295 0-0.569 0.239-0.61 0.531 0 0-0.057 0.411-0.056 0.899s0.057 0.899 0.056 0.9c0.04 0.293 0.315 0.532 0.61 0.532h1.525c0.295 0 0.601 0.188 0.681 0.417 0.079 0.23 0.188 0.967-0.02 1.176l-1.078 1.077C1.667 12.311 1.651 12.667 1.84 12.893l1.267 1.268c0.227 0.189 0.583 0.173 0.792-0.036l1.077-1.077c0.209-0.208 0.556-0.292 0.772-0.187s0.821 0.553 0.822 0.848v1.524c0 0.295 0.239 0.569 0.532 0.61 0 0 0.411 0.057 0.899 0.057s0.899-0.056 0.899-0.057c0.293-0.04 0.531-0.315 0.532-0.609v-1.524c0-0.295 0.188-0.602 0.418-0.681 0.23-0.079 0.967-0.188 1.176 0.021l1.077 1.077c0.209 0.209 0.565 0.225 0.792 0.036l1.268-1.267c0.189-0.227 0.173-0.583-0.036-0.792l-1.078-1.077c-0.209-0.209-0.293-0.557-0.186-0.773 0.106-0.216 0.552-0.822 0.847-0.822h1.525zM8 10.892c-1.597 0-2.891-1.294-2.891-2.892 0-1.596 1.295-2.891 2.891-2.891S10.892 6.404 10.892 8 9.597 10.892 8 10.892z"></path></g><g id="SvgjsG4648"><path d="M9.531 2.655a1.328 1.328 0 0 0 1.327-1.328C10.859 0.593 10.264-0.002 9.531 0a1.324 1.324 0 0 0-1.328 1.327c-0.002 0.733 0.594 1.328 1.328 1.328zM7.821 5.099l0.008 10.145c0.002 1.012 1.495 1.003 1.491-0.024l0.008-5.903h0.289v5.896c-0.003 1.032 1.507 1.058 1.507 0.031V5.052h0.266v3.64c-0.004 0.875 1.181 0.875 1.179 0.015V4.733c0.003-1.073-0.794-1.703-1.632-1.703h-2.367c-0.56 0-0.967 0.221-1.312 0.711l-1.195 1.741H3.994c-0.837 0-0.79 1.182-0.015 1.18H6.368c0.186 0.003 0.414-0.067 0.547-0.266l0.905-1.296z" fill-rule="evenodd"></path></g><g id="SvgjsG4647"><path d="M9.46 6.313c-1.577 0-2.86 1.283-2.86 2.86s1.283 2.86 2.86 2.86 2.86-1.283 2.86-2.86-1.283-2.86-2.86-2.86z"></path><path d="M13.26 3.839l-0.624-1.912h-6.352L5.661 3.839H0v10.668h16v-10.668H13.26zM3.744 6.743H1.543v-1.176H3.744v1.176z m5.716 6.624c-2.312 0-4.193-1.881-4.193-4.194s1.881-4.194 4.193-4.193 4.193 1.881 4.194 4.193-1.88 4.194-4.193 4.194z"></path></g><g id="SvgjsG4649"><path d="M15.819 2.872L8 9.063 0.182 2.872z m0 8.863L11.116 8l4.703-3.734zM0.161 4.266l4.702 3.734L0.161 11.735z"></path><path d="M10.255 8.663L8.011 10.434 5.766 8.663 0.182 13.068h15.656z"></path></g><g id="SvgjsG4643"><path d="M8 2.022C3.815 2.022 0.422 4.579 0.422 7.733c0 1.544 0.814 2.944 2.135 3.972l0.003 3.427 3.961-1.798c0.479 0.071 0.973 0.11 1.48 0.11 4.185 0 7.578-2.557 7.578-5.711 0-3.154-3.392-5.711-7.577-5.711zM4.81 8.933a1.067 1.067 0 1 1 0-2.133 1.067 1.067 0 0 1 0 2.133z m3.186 0a1.067 1.067 0 1 1 0-2.133 1.067 1.067 0 0 1 0 2.133z m3.143 0c-0.589 0-1.067-0.478-1.067-1.066s0.477-1.067 1.067-1.067 1.067 0.478 1.067 1.067a1.067 1.067 0 0 1-1.067 1.066z"></path></g><g id="SvgjsG4642"><path d="M3.536 11.602h4.034c0.389 0.183 3.806 2.583 4.382 2.972l0.011-2.995h-0.022a2.761 2.761 0 0 0 2.422-2.742V3.09c0-1.527-1.234-2.766-2.765-2.765H3.538c-1.531 0-2.766 1.239-2.765 2.765v5.747c0 1.525 1.239 2.766 2.765 2.765z" fill-rule="evenodd"></path></g><g id="SvgjsG4652"><use xlink:href="#SvgjsG4642" transform="translate(0, 0) scale(2)" fill="rgba(31, 124, 105, 1)"></use><use xlink:href="#SvgjsG4643" transform="translate(0, 72) scale(2)" fill="rgba(31, 124, 105, 1)"></use><use xlink:href="#SvgjsG4644" transform="translate(0, 144) scale(2)" fill="rgba(31, 124, 105, 1)"></use><use xlink:href="#SvgjsG4645" transform="translate(0, 216) scale(2)" fill="rgba(0, 0, 0, 1)"></use><use xlink:href="#SvgjsG4646" transform="translate(0, 288) scale(2)" fill="rgba(31, 124, 105, 1)"></use><use xlink:href="#SvgjsG4645" transform="translate(0, 360) scale(2)" fill="rgba(31, 124, 105, 1)"></use><use xlink:href="#SvgjsG4643" transform="translate(0, 432) scale(2)" fill="rgba(31, 124, 105, 1)"></use><use xlink:href="#SvgjsG4647" transform="translate(0, 504) scale(2)" fill="rgba(0, 0, 0, 1)"></use><use xlink:href="#SvgjsG4646" transform="translate(0, 576) scale(2)" fill="rgba(31, 124, 105, 1)"></use><use xlink:href="#SvgjsG4642" transform="translate(0, 648) scale(2)" fill="rgba(31, 124, 105, 1)"></use><use xlink:href="#SvgjsG4648" transform="translate(72, 0) scale(2)" fill="rgba(31, 124, 105, 1)"></use><use xlink:href="#SvgjsG4649" transform="translate(72, 72) scale(2)" fill="rgba(0, 0, 0, 1)"></use><use xlink:href="#SvgjsG4645" transform="translate(72, 144) scale(2)" fill="rgba(0, 0, 0, 1)"></use><use xlink:href="#SvgjsG4647" transform="translate(72, 216) scale(2)" fill="rgba(31, 124, 105, 1)"></use><use xlink:href="#SvgjsG4644" transform="translate(72, 288) scale(2)" fill="rgba(0, 0, 0, 1)"></use><use xlink:href="#SvgjsG4649" transform="translate(72, 360) scale(2)" fill="rgba(0, 0, 0, 1)"></use><use xlink:href="#SvgjsG4642" transform="translate(72, 432) scale(2)" fill="rgba(31, 124, 105, 1)"></use><use xlink:href="#SvgjsG4644" transform="translate(72, 504) scale(2)" fill="rgba(31, 124, 105, 1)"></use><use xlink:href="#SvgjsG4648" transform="translate(72, 576) scale(2)" fill="rgba(31, 124, 105, 1)"></use><use xlink:href="#SvgjsG4650" transform="translate(72, 648) scale(2)" fill="rgba(31, 124, 105, 1)"></use><use xlink:href="#SvgjsG4644" transform="translate(144, 0) scale(2)" fill="rgba(0, 0, 0, 1)"></use><use xlink:href="#SvgjsG4642" transform="translate(144, 72) scale(2)" fill="rgba(31, 124, 105, 1)"></use><use xlink:href="#SvgjsG4644" transform="translate(144, 144) scale(2)" fill="rgba(0, 0, 0, 1)"></use><use xlink:href="#SvgjsG4643" transform="translate(144, 216) scale(2)" fill="rgba(0, 0, 0, 1)"></use><use xlink:href="#SvgjsG4647" transform="translate(144, 288) scale(2)" fill="rgba(31, 124, 105, 1)"></use><use xlink:href="#SvgjsG4643" transform="translate(144, 360) scale(2)" fill="rgba(31, 124, 105, 1)"></use><use xlink:href="#SvgjsG4646" transform="translate(144, 432) scale(2)" fill="rgba(31, 124, 105, 1)"></use><use xlink:href="#SvgjsG4649" transform="translate(144, 504) scale(2)" fill="rgba(0, 0, 0, 1)"></use><use xlink:href="#SvgjsG4648" transform="translate(144, 576) scale(2)" fill="rgba(31, 124, 105, 1)"></use><use xlink:href="#SvgjsG4651" transform="translate(144, 648) scale(2)" fill="rgba(0, 0, 0, 1)"></use><use xlink:href="#SvgjsG4649" transform="translate(216, 0) scale(2)" fill="rgba(0, 0, 0, 1)"></use><use xlink:href="#SvgjsG4649" transform="translate(216, 72) scale(2)" fill="rgba(0, 0, 0, 1)"></use><use xlink:href="#SvgjsG4643" transform="translate(216, 144) scale(2)" fill="rgba(0, 0, 0, 1)"></use><use xlink:href="#SvgjsG4650" transform="translate(216, 216) scale(2)" fill="rgba(31, 124, 105, 1)"></use><use xlink:href="#SvgjsG4642" transform="translate(216, 288) scale(2)" fill="rgba(0, 0, 0, 1)"></use><use xlink:href="#SvgjsG4648" transform="translate(216, 360) scale(2)" fill="rgba(31, 124, 105, 1)"></use><use xlink:href="#SvgjsG4642" transform="translate(216, 432) scale(2)" fill="rgba(31, 124, 105, 1)"></use><use xlink:href="#SvgjsG4651" transform="translate(216, 504) scale(2)" fill="rgba(0, 0, 0, 1)"></use><use xlink:href="#SvgjsG4651" transform="translate(216, 576) scale(2)" fill="rgba(0, 0, 0, 1)"></use><use xlink:href="#SvgjsG4647" transform="translate(216, 648) scale(2)" fill="rgba(0, 0, 0, 1)"></use><use xlink:href="#SvgjsG4651" transform="translate(288, 0) scale(2)" fill="rgba(0, 0, 0, 1)"></use><use xlink:href="#SvgjsG4646" transform="translate(288, 72) scale(2)" fill="rgba(0, 0, 0, 1)"></use><use xlink:href="#SvgjsG4643" transform="translate(288, 144) scale(2)" fill="rgba(31, 124, 105, 1)"></use><use xlink:href="#SvgjsG4651" transform="translate(288, 216) scale(2)" fill="rgba(31, 124, 105, 1)"></use><use xlink:href="#SvgjsG4643" transform="translate(288, 288) scale(2)" fill="rgba(0, 0, 0, 1)"></use><use xlink:href="#SvgjsG4649" transform="translate(288, 360) scale(2)" fill="rgba(31, 124, 105, 1)"></use><use xlink:href="#SvgjsG4644" transform="translate(288, 432) scale(2)" fill="rgba(31, 124, 105, 1)"></use><use xlink:href="#SvgjsG4643" transform="translate(288, 504) scale(2)" fill="rgba(0, 0, 0, 1)"></use><use xlink:href="#SvgjsG4644" transform="translate(288, 576) scale(2)" fill="rgba(31, 124, 105, 1)"></use><use xlink:href="#SvgjsG4649" transform="translate(288, 648) scale(2)" fill="rgba(31, 124, 105, 1)"></use><use xlink:href="#SvgjsG4650" transform="translate(360, 0) scale(2)" fill="rgba(0, 0, 0, 1)"></use><use xlink:href="#SvgjsG4649" transform="translate(360, 72) scale(2)" fill="rgba(31, 124, 105, 1)"></use><use xlink:href="#SvgjsG4646" transform="translate(360, 144) scale(2)" fill="rgba(0, 0, 0, 1)"></use><use xlink:href="#SvgjsG4651" transform="translate(360, 216) scale(2)" fill="rgba(0, 0, 0, 1)"></use><use xlink:href="#SvgjsG4644" transform="translate(360, 288) scale(2)" fill="rgba(0, 0, 0, 1)"></use><use xlink:href="#SvgjsG4651" transform="translate(360, 360) scale(2)" fill="rgba(31, 124, 105, 1)"></use><use xlink:href="#SvgjsG4646" transform="translate(360, 432) scale(2)" fill="rgba(31, 124, 105, 1)"></use><use xlink:href="#SvgjsG4649" transform="translate(360, 504) scale(2)" fill="rgba(0, 0, 0, 1)"></use><use xlink:href="#SvgjsG4651" transform="translate(360, 576) scale(2)" fill="rgba(0, 0, 0, 1)"></use><use xlink:href="#SvgjsG4644" transform="translate(360, 648) scale(2)" fill="rgba(31, 124, 105, 1)"></use><use xlink:href="#SvgjsG4648" transform="translate(432, 0) scale(2)" fill="rgba(0, 0, 0, 1)"></use><use xlink:href="#SvgjsG4650" transform="translate(432, 72) scale(2)" fill="rgba(0, 0, 0, 1)"></use><use xlink:href="#SvgjsG4649" transform="translate(432, 144) scale(2)" fill="rgba(0, 0, 0, 1)"></use><use xlink:href="#SvgjsG4642" transform="translate(432, 216) scale(2)" fill="rgba(0, 0, 0, 1)"></use><use xlink:href="#SvgjsG4643" transform="translate(432, 288) scale(2)" fill="rgba(0, 0, 0, 1)"></use><use xlink:href="#SvgjsG4646" transform="translate(432, 360) scale(2)" fill="rgba(31, 124, 105, 1)"></use><use xlink:href="#SvgjsG4643" transform="translate(432, 432) scale(2)" fill="rgba(31, 124, 105, 1)"></use><use xlink:href="#SvgjsG4647" transform="translate(432, 504) scale(2)" fill="rgba(31, 124, 105, 1)"></use><use xlink:href="#SvgjsG4645" transform="translate(432, 576) scale(2)" fill="rgba(31, 124, 105, 1)"></use><use xlink:href="#SvgjsG4647" transform="translate(432, 648) scale(2)" fill="rgba(0, 0, 0, 1)"></use><use xlink:href="#SvgjsG4651" transform="translate(504, 0) scale(2)" fill="rgba(0, 0, 0, 1)"></use><use xlink:href="#SvgjsG4642" transform="translate(504, 72) scale(2)" fill="rgba(31, 124, 105, 1)"></use><use xlink:href="#SvgjsG4644" transform="translate(504, 144) scale(2)" fill="rgba(31, 124, 105, 1)"></use><use xlink:href="#SvgjsG4650" transform="translate(504, 216) scale(2)" fill="rgba(0, 0, 0, 1)"></use><use xlink:href="#SvgjsG4646" transform="translate(504, 288) scale(2)" fill="rgba(0, 0, 0, 1)"></use><use xlink:href="#SvgjsG4649" transform="translate(504, 360) scale(2)" fill="rgba(31, 124, 105, 1)"></use><use xlink:href="#SvgjsG4643" transform="translate(504, 432) scale(2)" fill="rgba(0, 0, 0, 1)"></use><use xlink:href="#SvgjsG4651" transform="translate(504, 504) scale(2)" fill="rgba(31, 124, 105, 1)"></use><use xlink:href="#SvgjsG4650" transform="translate(504, 576) scale(2)" fill="rgba(31, 124, 105, 1)"></use><use xlink:href="#SvgjsG4644" transform="translate(504, 648) scale(2)" fill="rgba(0, 0, 0, 1)"></use><use xlink:href="#SvgjsG4642" transform="translate(576, 0) scale(2)" fill="rgba(0, 0, 0, 1)"></use><use xlink:href="#SvgjsG4642" transform="translate(576, 72) scale(2)" fill="rgba(0, 0, 0, 1)"></use><use xlink:href="#SvgjsG4648" transform="translate(576, 144) scale(2)" fill="rgba(31, 124, 105, 1)"></use><use xlink:href="#SvgjsG4642" transform="translate(576, 216) scale(2)" fill="rgba(31, 124, 105, 1)"></use><use xlink:href="#SvgjsG4651" transform="translate(576, 288) scale(2)" fill="rgba(0, 0, 0, 1)"></use><use xlink:href="#SvgjsG4648" transform="translate(576, 360) scale(2)" fill="rgba(0, 0, 0, 1)"></use><use xlink:href="#SvgjsG4647" transform="translate(576, 432) scale(2)" fill="rgba(0, 0, 0, 1)"></use><use xlink:href="#SvgjsG4648" transform="translate(576, 504) scale(2)" fill="rgba(0, 0, 0, 1)"></use><use xlink:href="#SvgjsG4647" transform="translate(576, 576) scale(2)" fill="rgba(31, 124, 105, 1)"></use><use xlink:href="#SvgjsG4642" transform="translate(576, 648) scale(2)" fill="rgba(31, 124, 105, 1)"></use><use xlink:href="#SvgjsG4648" transform="translate(648, 0) scale(2)" fill="rgba(0, 0, 0, 1)"></use><use xlink:href="#SvgjsG4643" transform="translate(648, 72) scale(2)" fill="rgba(31, 124, 105, 1)"></use><use xlink:href="#SvgjsG4651" transform="translate(648, 144) scale(2)" fill="rgba(0, 0, 0, 1)"></use><use xlink:href="#SvgjsG4642" transform="translate(648, 216) scale(2)" fill="rgba(31, 124, 105, 1)"></use><use xlink:href="#SvgjsG4645" transform="translate(648, 288) scale(2)" fill="rgba(31, 124, 105, 1)"></use><use xlink:href="#SvgjsG4642" transform="translate(648, 360) scale(2)" fill="rgba(31, 124, 105, 1)"></use><use xlink:href="#SvgjsG4647" transform="translate(648, 432) scale(2)" fill="rgba(0, 0, 0, 1)"></use><use xlink:href="#SvgjsG4651" transform="translate(648, 504) scale(2)" fill="rgba(31, 124, 105, 1)"></use><use xlink:href="#SvgjsG4649" transform="translate(648, 576) scale(2)" fill="rgba(31, 124, 105, 1)"></use><use xlink:href="#SvgjsG4644" transform="translate(648, 648) scale(2)" fill="rgba(31, 124, 105, 1)"></use></g></defs></svg>